<svg version="1.1" xmlns="http://www.w3.org/2000/svg" xmlns:xlink="http://www.w3.org/1999/xlink" width="16" height="16" viewBox="0,0,256,256"><g fill="#010180" fill-rule="nonzero" stroke="none" stroke-width="1" stroke-linecap="butt" stroke-linejoin="miter" stroke-miterlimit="10" stroke-dasharray="" stroke-dashoffset="0" font-family="none" font-weight="none" font-size="none" text-anchor="none" style="mix-blend-mode: normal"><g transform="scale(16,16)"><path d="M9.5,0c0.27614,0 0.5,0.22386 0.5,0.5c0,0.27614 0.22386,0.5 0.5,0.5c0.27614,0 0.5,0.22386 0.5,0.5v0.5c0,0.27614 -0.22386,0.5 -0.5,0.5h-5c-0.27614,0 -0.5,-0.22386 -0.5,-0.5v-0.5c0,-0.27614 0.22386,-0.5 0.5,-0.5c0.27614,0 0.5,-0.22386 0.5,-0.5c0,-0.27614 0.22386,-0.5 0.5,-0.5z"></path><path d="M3,2.5c0,-0.27614 0.22386,-0.5 0.5,-0.5h0.5c0.27614,0 0.5,-0.22386 0.5,-0.5c0,-0.27614 -0.22386,-0.5 -0.5,-0.5h-0.5c-0.82843,0 -1.5,0.67157 -1.5,1.5v12c0,0.82843 0.67157,1.5 1.5,1.5h9c0.82843,0 1.5,-0.67157 1.5,-1.5v-12c0,-0.82843 -0.67157,-1.5 -1.5,-1.5h-0.5c-0.27614,0 -0.5,0.22386 -0.5,0.5c0,0.27614 0.22386,0.5 0.5,0.5h0.5c0.27614,0 0.5,0.22386 0.5,0.5v12c0,0.27614 -0.22386,0.5 -0.5,0.5h-9c-0.27614,0 -0.5,-0.22386 -0.5,-0.5z"></path><path d="M10.854,7.854c0.19551,-0.19551 0.19551,-0.51249 0,-0.708c-0.19551,-0.19551 -0.51249,-0.19551 -0.708,0l-2.646,2.647l-1.146,-1.147c-0.19551,-0.19551 -0.51249,-0.19551 -0.708,0c-0.19551,0.19551 -0.19551,0.51249 0,0.708l1.5,1.5c0.0938,0.09404 0.22117,0.14689 0.354,0.14689c0.13283,0 0.2602,-0.05285 0.354,-0.14689z"></path></g></g></svg>