<svg version="1.1" xmlns="http://www.w3.org/2000/svg" xmlns:xlink="http://www.w3.org/1999/xlink" width="16" height="16" viewBox="0,0,256,256"><g fill="#000080" fill-rule="evenodd" stroke="none" stroke-width="1" stroke-linecap="butt" stroke-linejoin="miter" stroke-miterlimit="10" stroke-dasharray="" stroke-dashoffset="0" font-family="none" font-weight="none" font-size="none" text-anchor="none" style="mix-blend-mode: normal"><g transform="scale(16,16)"><path d="M7.21,0.8c0.48,-0.505 0.79,-0.8 0.79,-0.8c0.10933,0.36267 0.233,0.70867 0.371,1.038c0.812,1.946 2.073,3.35 3.197,4.6c1.31,1.458 2.432,2.707 2.432,4.362c0,3.31371 -2.68629,6 -6,6c-3.31371,0 -6,-2.68629 -6,-6c0,-3.332 3.58,-7.483 5.21,-9.2M7.623,1.821c-0.64245,0.69471 -1.25276,1.41846 -1.829,2.169c-0.726,0.95 -1.436,2.008 -1.96,3.07c-0.53,1.073 -0.834,2.078 -0.834,2.94c0,0 2.5,1.5 5,0.5c2.5,-1 5,-0.5 5,-0.5c0,-1.201 -0.796,-2.157 -2.181,-3.7l-0.03,-0.032c-1.039,-1.158 -2.289,-2.548 -3.166,-4.448z"></path><path d="M4.553,7.776c0.82,-1.641 1.717,-2.753 2.093,-3.13l0.708,0.708c-0.29,0.29 -1.128,1.311 -1.907,2.87z"></path></g></g></svg>