<svg version="1.1" xmlns="http://www.w3.org/2000/svg" xmlns:xlink="http://www.w3.org/1999/xlink" width="16" height="16" viewBox="0,0,256,256"><g fill="#ffffff" fill-rule="nonzero" stroke="none" stroke-width="1" stroke-linecap="butt" stroke-linejoin="miter" stroke-miterlimit="10" stroke-dasharray="" stroke-dashoffset="0" font-family="none" font-weight="none" font-size="none" text-anchor="none" style="mix-blend-mode: normal"><g transform="scale(16,16)"><path d="M8,11c-1.65685,0 -3,-1.34315 -3,-3c0,-1.65685 1.34315,-3 3,-3c1.65685,0 3,1.34315 3,3c0,1.65685 -1.34315,3 -3,3M8,12c2.20914,0 4,-1.79086 4,-4c0,-2.20914 -1.79086,-4 -4,-4c-2.20914,0 -4,1.79086 -4,4c0,2.20914 1.79086,4 4,4M8,0c0.27614,0 0.5,0.22386 0.5,0.5v2c0,0.27614 -0.22386,0.5 -0.5,0.5c-0.27614,0 -0.5,-0.22386 -0.5,-0.5v-2c0,-0.27614 0.22386,-0.5 0.5,-0.5M8,13c0.27614,0 0.5,0.22386 0.5,0.5v2c0,0.27614 -0.22386,0.5 -0.5,0.5c-0.27614,0 -0.5,-0.22386 -0.5,-0.5v-2c0,-0.27614 0.22386,-0.5 0.5,-0.5M16,8c0,0.27614 -0.22386,0.5 -0.5,0.5h-2c-0.27614,0 -0.5,-0.22386 -0.5,-0.5c0,-0.27614 0.22386,-0.5 0.5,-0.5h2c0.27614,0 0.5,0.22386 0.5,0.5M3,8c0,0.27614 -0.22386,0.5 -0.5,0.5h-2c-0.27614,0 -0.5,-0.22386 -0.5,-0.5c0,-0.27614 0.22386,-0.5 0.5,-0.5h2c0.27614,0 0.5,0.22386 0.5,0.5M13.657,2.343c0.19519,0.19525 0.19519,0.51175 0,0.707l-1.414,1.415c-0.19551,0.19523 -0.51227,0.19501 -0.7075,-0.0005c-0.19523,-0.19551 -0.19501,-0.51227 0.0005,-0.7075l1.414,-1.414c0.19525,-0.19519 0.51175,-0.19519 0.707,0M4.464,11.536c0.19519,0.19525 0.19519,0.51175 0,0.707l-1.414,1.414c-0.19619,0.18949 -0.50804,0.18678 -0.70091,-0.00609c-0.19287,-0.19287 -0.19558,-0.50472 -0.00609,-0.70091l1.414,-1.414c0.19525,-0.19519 0.51175,-0.19519 0.707,0M13.657,13.657c-0.19525,0.19519 -0.51175,0.19519 -0.707,0l-1.414,-1.414c-0.18949,-0.19619 -0.18678,-0.50804 0.00609,-0.70091c0.19287,-0.19287 0.50472,-0.19558 0.70091,-0.00609l1.414,1.414c0.19519,0.19525 0.19519,0.51175 0,0.707M4.464,4.465c-0.19525,0.19519 -0.51175,0.19519 -0.707,0l-1.414,-1.415c-0.12998,-0.12554 -0.18211,-0.31144 -0.13635,-0.48625c0.04576,-0.17481 0.18228,-0.31134 0.35709,-0.35709c0.17481,-0.04576 0.36072,0.00637 0.48625,0.13635l1.414,1.414c0.09404,0.0938 0.14689,0.22117 0.14689,0.354c0,0.13283 -0.05285,0.2602 -0.14689,0.354"></path></g></g></svg>