<svg version="1.1" xmlns="http://www.w3.org/2000/svg" xmlns:xlink="http://www.w3.org/1999/xlink" width="16" height="16" viewBox="0,0,256,256"><g fill="#ffffff" fill-rule="nonzero" stroke="none" stroke-width="1" stroke-linecap="butt" stroke-linejoin="miter" stroke-miterlimit="10" stroke-dasharray="" stroke-dashoffset="0" font-family="none" font-weight="none" font-size="none" text-anchor="none" style="mix-blend-mode: normal"><g transform="translate(-0.00182,-0.00223) scale(16,16)"><path d="M8.5,5.5c0,-0.27614 -0.22386,-0.5 -0.5,-0.5c-0.27614,0 -0.5,0.22386 -0.5,0.5v3.362l-1.429,2.38c-0.14221,0.23693 -0.06543,0.54429 0.1715,0.6865c0.23693,0.14221 0.54429,0.06543 0.6865,-0.1715l1.5,-2.5c0.04649,-0.07766 0.07103,-0.16649 0.071,-0.257z"></path><path d="M6.5,0c-0.27614,0 -0.5,0.22386 -0.5,0.5c0,0.27614 0.22386,0.5 0.5,0.5h0.5v1.07c-2.78393,0.4022 -5.05683,2.4315 -5.77071,5.15224c-0.71388,2.72074 0.26988,5.60454 2.49771,7.32176l-0.602,0.602c-0.19551,0.19523 -0.19573,0.51199 -0.0005,0.7075c0.19523,0.19551 0.51199,0.19573 0.7075,0.0005l0.746,-0.746c1.04502,0.58657 2.22362,0.89379 3.422,0.892c1.19838,0.00179 2.37698,-0.30543 3.422,-0.892l0.746,0.746c0.19551,0.19523 0.51227,0.19501 0.7075,-0.0005c0.19523,-0.19551 0.19501,-0.51227 -0.0005,-0.7075l-0.601,-0.602c2.22787,-1.71735 3.21153,-4.60134 2.49742,-7.32214c-0.71412,-2.7208 -2.98732,-4.74997 -5.77142,-5.15186v-1.07h0.5c0.27614,0 0.5,-0.22386 0.5,-0.5c0,-0.27614 -0.22386,-0.5 -0.5,-0.5zM7.538,3.018c0.30754,-0.02375 0.61646,-0.02375 0.924,0c3.21419,0.24823 5.65775,2.99199 5.53354,6.21336c-0.12421,3.22137 -2.77178,5.76883 -5.99554,5.76883c-3.22376,0 -5.87134,-2.54746 -5.99554,-5.76883c-0.12421,-3.22137 2.31935,-5.96513 5.53354,-6.21336M0,3.5c0,0.753 0.333,1.429 0.86,1.887c0.77203,-1.51984 2.00716,-2.75497 3.527,-3.527c-0.68422,-0.78732 -1.78536,-1.06709 -2.76241,-0.70183c-0.97705,0.36525 -1.62464,1.29874 -1.62459,2.34183M13.5,1c-0.753,0 -1.429,0.333 -1.887,0.86c1.51984,0.77203 2.75497,2.00716 3.527,3.527c0.78732,-0.68422 1.06709,-1.78536 0.70183,-2.76241c-0.36525,-0.97705 -1.29874,-1.62464 -2.34183,-1.62459"></path></g></g></svg>