<svg version="1.1" xmlns="http://www.w3.org/2000/svg" xmlns:xlink="http://www.w3.org/1999/xlink" width="16" height="16" viewBox="0,0,256,256"><g fill="#010180" fill-rule="nonzero" stroke="none" stroke-width="1" stroke-linecap="butt" stroke-linejoin="miter" stroke-miterlimit="10" stroke-dasharray="" stroke-dashoffset="0" font-family="none" font-weight="none" font-size="none" text-anchor="none" style="mix-blend-mode: normal"><g transform="translate(-0.02736,0.01133) scale(16,16)"><path d="M7.938,2.016c0.0196,-0.01075 0.04165,-0.01626 0.064,-0.016c0.02202,-0.00009 0.04369,0.00542 0.063,0.016c0.02274,0.01387 0.04138,0.03354 0.054,0.057l6.857,11.667c0.036,0.06 0.035,0.124 0.002,0.183c-0.01373,0.02346 -0.03211,0.04388 -0.054,0.06c-0.01933,0.01322 -0.04269,0.01924 -0.066,0.017h-13.712c-0.02331,0.00224 -0.04667,-0.00378 -0.066,-0.017c-0.02189,-0.01612 -0.04027,-0.03654 -0.054,-0.06c-0.03271,-0.05681 -0.03194,-0.12692 0.002,-0.183l6.856,-11.667c0.01262,-0.02346 0.03126,-0.04313 0.054,-0.057M8.982,1.566c-0.20149,-0.35098 -0.57529,-0.56742 -0.98,-0.56742c-0.40471,0 -0.77851,0.21643 -0.98,0.56742l-6.857,11.667c-0.457,0.778 0.091,1.767 0.98,1.767h13.713c0.889,0 1.438,-0.99 0.98,-1.767z"></path><path d="M7.002,12c0,-0.55228 0.44772,-1 1,-1c0.55228,0 1,0.44772 1,1c0,0.55228 -0.44772,1 -1,1c-0.55228,0 -1,-0.44772 -1,-1M7.1,5.995c-0.03633,-0.34419 0.12682,-0.67896 0.42031,-0.86241c0.29348,-0.18345 0.6659,-0.18345 0.95938,0c0.29348,0.18345 0.45664,0.51822 0.42031,0.86241l-0.35,3.507c-0.02438,0.28562 -0.26334,0.50505 -0.55,0.50505c-0.28666,0 -0.52562,-0.21943 -0.55,-0.50505z"></path></g></g></svg>