<svg version="1.1" xmlns="http://www.w3.org/2000/svg" xmlns:xlink="http://www.w3.org/1999/xlink" width="16" height="16" viewBox="0,0,256,256"><g fill="#ffffff" fill-rule="nonzero" stroke="none" stroke-width="1" stroke-linecap="butt" stroke-linejoin="miter" stroke-miterlimit="10" stroke-dasharray="" stroke-dashoffset="0" font-family="none" font-weight="none" font-size="none" text-anchor="none" style="mix-blend-mode: normal"><g transform="translate(-0.01043,-0.00635) scale(16,16)"><path d="M7.987,16c-0.40164,-0.0031 -0.78596,-0.16401 -1.07,-0.448l-6.467,-6.47c-0.28731,-0.28698 -0.44875,-0.67641 -0.44875,-1.0825c0,-0.40609 0.16144,-0.79552 0.44875,-1.0825l6.467,-6.467c0.28702,-0.28762 0.67667,-0.44925 1.083,-0.44925c0.40633,0 0.79598,0.16163 1.083,0.44925l6.469,6.468c0.29012,0.29016 0.45154,0.68469 0.448,1.095c-0.0031,0.40164 -0.16401,0.78596 -0.448,1.07l-6.47,6.469c-0.28992,0.28987 -0.68404,0.45127 -1.094,0.448zM7.639,1.17l-2.873,2.874l3.234,3.234l3.234,-3.234l-2.873,-2.874c-0.09567,-0.09587 -0.22556,-0.14975 -0.361,-0.14975c-0.13544,0 -0.26533,0.05388 -0.361,0.14975M8.722,8l3.234,3.234l2.873,-2.873c0.2,-0.2 0.2,-0.523 0,-0.722l-2.873,-2.873zM8,8.722l-3.234,3.234l2.873,2.873c0.2,0.2 0.523,0.2 0.722,0l2.873,-2.873zM7.278,8l-3.234,-3.234l-2.874,2.873c-0.09587,0.09567 -0.14975,0.22556 -0.14975,0.361c0,0.13544 0.05388,0.26533 0.14975,0.361l2.874,2.873z"></path></g></g></svg>