<svg version="1.1" xmlns="http://www.w3.org/2000/svg" xmlns:xlink="http://www.w3.org/1999/xlink" width="16" height="16" viewBox="0,0,256,256"><g fill="#ffffff" fill-rule="nonzero" stroke="none" stroke-width="1" stroke-linecap="butt" stroke-linejoin="miter" stroke-miterlimit="10" stroke-dasharray="" stroke-dashoffset="0" font-family="none" font-weight="none" font-size="none" text-anchor="none" style="mix-blend-mode: normal"><g transform="scale(16,16)"><path d="M11,2c0,-0.55228 0.44772,-1 1,-1h2c0.55228,0 1,0.44772 1,1v12h0.5c0.27614,0 0.5,0.22386 0.5,0.5c0,0.27614 -0.22386,0.5 -0.5,0.5h-15c-0.27614,0 -0.5,-0.22386 -0.5,-0.5c0,-0.27614 0.22386,-0.5 0.5,-0.5h0.5v-3c0,-0.55228 0.44772,-1 1,-1h2c0.55228,0 1,0.44772 1,1v3h1v-7c0,-0.55228 0.44772,-1 1,-1h2c0.55228,0 1,0.44772 1,1v7h1zM12,14h2v-12h-2zM9,14v-7h-2v7zM4,14v-3h-2v3z"></path></g></g></svg>