<svg version="1.1" xmlns="http://www.w3.org/2000/svg" xmlns:xlink="http://www.w3.org/1999/xlink" width="16" height="16" viewBox="0,0,256,256"><g fill="#010180" fill-rule="nonzero" stroke="none" stroke-width="1" stroke-linecap="butt" stroke-linejoin="miter" stroke-miterlimit="10" stroke-dasharray="" stroke-dashoffset="0" font-family="none" font-weight="none" font-size="none" text-anchor="none" style="mix-blend-mode: normal"><g transform="translate(-16,0) scale(16,16)"><path d="M13.5,0c-0.27614,0 -0.5,0.22386 -0.5,0.5c0,0.27614 0.22386,0.5 0.5,0.5h1.5v2.75h-0.5c-0.27614,0 -0.5,0.22386 -0.5,0.5c0,0.27614 0.22386,0.5 0.5,0.5h0.5v2.75h-1.5c-0.27614,0 -0.5,0.22386 -0.5,0.5c0,0.27614 0.22386,0.5 0.5,0.5h1.5v2.75h-0.5c-0.27614,0 -0.5,0.22386 -0.5,0.5c0,0.27614 0.22386,0.5 0.5,0.5h0.5v2.75h-1.5c-0.27614,0 -0.5,0.22386 -0.5,0.5c0,0.27614 0.22386,0.5 0.5,0.5h2c0.27614,0 0.5,-0.22386 0.5,-0.5v-15c0,-0.27614 -0.22386,-0.5 -0.5,-0.5zM7,1.5l0.364,-0.343c-0.09448,-0.10033 -0.22619,-0.15721 -0.364,-0.15721c-0.13781,0 -0.26952,0.05688 -0.364,0.15721l-0.002,0.002l-0.006,0.007l-0.022,0.023l-0.08,0.088c-0.44182,0.49101 -0.86673,0.99697 -1.274,1.517c-0.769,0.983 -1.714,2.325 -2.385,3.727c-0.499,1.043 -0.867,2.161 -0.867,3.212c0,2.881 2.212,5.267 5,5.267c2.788,0 5,-2.386 5,-5.267c0,-1.05 -0.368,-2.169 -0.867,-3.212c-0.671,-1.402 -1.616,-2.744 -2.385,-3.727c-0.43181,-0.55117 -0.88344,-1.08652 -1.354,-1.605l-0.022,-0.023l-0.006,-0.007l-0.002,-0.001zM7,1.5l-0.364,-0.343zM6.984,2.266l0.016,-0.019l0.016,0.019c0.24,0.274 0.572,0.667 0.944,1.144c0.611,0.781 1.32,1.776 1.901,2.827h-5.721c0.58,-1.051 1.29,-2.046 1.9,-2.827c0.373,-0.477 0.706,-0.87 0.945,-1.144zM3,9.733c0,-0.755 0.244,-1.612 0.638,-2.496h6.724c0.395,0.884 0.638,1.741 0.638,2.496c0,2.384 -1.818,4.267 -4,4.267c-2.182,0 -4,-1.883 -4,-4.267"></path></g></g></svg>